<svg height="512" viewBox="0 0 512 512" width="512" xmlns="http://www.w3.org/2000/svg"><path d="m256 16c-132.336 0-240 107.664-240 240s107.664 240 240 240 240-107.664 240-240-107.664-240-240-240zm0 464c-123.516 0-224-100.484-224-224s100.484-224 224-224 224 100.484 224 224-100.484 224-224 224z"/><path d="m122.891 117.766-11.091-11.532c-4.852 4.68-9.524 9.625-13.875 14.711l12.156 10.407c4.019-4.704 8.333-9.274 12.81-13.586z"/><path d="m48.656 239.367 15.953 1.266a191.284 191.284 0 0 1 34.625-95.367l-13.062-9.25a207.42 207.42 0 0 0 -37.516 103.351z"/><path d="m368 98.633a34.634 34.634 0 0 0 -68.445-7.508c-1.351 6.08-2.436 12.219-3.552 18.35a148.5 148.5 0 0 0 -40-5.32v-40.155h-16.003v96a40.253 40.253 0 0 1 -8 24 39.8 39.8 0 0 1 -8.219 8.148c-9.914 7.313-15.57 19.532-15.117 32.727l7.328 183.414a15.075 15.075 0 0 1 -4.265 11.078 15.571 15.571 0 0 1 -21.852 0 15.1 15.1 0 0 1 -4.266-11.1l5.727-183.438c.453-13.148-5.2-25.367-15.125-32.68a39.8 39.8 0 0 1 -8.211-8.157 40.212 40.212 0 0 1 -8-23.992v-96h-16v89.492a151.493 151.493 0 0 0 26.447 227.933l-.822 26.317a31.195 31.195 0 1 0 62.352-.047l-.067-1.673a149.176 149.176 0 0 0 74.356-6.7l-.539 7.36a31.173 31.173 0 1 0 62.273 2.146v-50.32a151.349 151.349 0 0 0 0-205.016zm-196.948 263.411a135.468 135.468 0 0 1 -24.647-186.3 54.775 54.775 0 0 0 20.314 29.284c5.672 4.18 8.9 11.383 8.633 19.282zm136.508 19.61a130.071 130.071 0 0 1 -76.311 7.83l-6.6-165.2c-.265-7.875 2.961-15.078 8.625-19.258a55.646 55.646 0 0 0 11.526-11.426 56.3 56.3 0 0 0 11.2-33.6v-39.864a132.405 132.405 0 0 1 37.389 5.222 485.96 485.96 0 0 0 -5.389 71.033v83.609a8 8 0 0 0 8 8h18.422zm44.44 27.174a15.188 15.188 0 0 1 -15.172 15.172 15.171 15.171 0 0 1 -15.14-16.18l9.32-127.234a8 8 0 0 0 -7.977-8.586h-19.031v-75.609a469.614 469.614 0 0 1 11.18-101.8 18.631 18.631 0 0 1 36.82 4.042zm40-152.828a134.989 134.989 0 0 1 -24 76.9v-153.8a134.989 134.989 0 0 1 24 76.9z"/><path d="m176 64h16v88h-16z"/><path d="m208 64h16v88h-16z"/></svg>