<?xml version="1.0" encoding="iso-8859-1"?>
<!-- Generator: Adobe Illustrator 19.0.0, SVG Export Plug-In . SVG Version: 6.00 Build 0)  -->
<svg version="1.1" id="Capa_1" xmlns="http://www.w3.org/2000/svg" xmlns:xlink="http://www.w3.org/1999/xlink" x="0px" y="0px"
	 viewBox="0 0 496 496" style="enable-background:new 0 0 496 496;" xml:space="preserve">
<g>
	<g>
		<path d="M496,248C496,111.256,384.744,0,248,0S0,111.256,0,248s111.256,248,248,248c42.888,0,83.264-10.952,118.496-30.192
			l27.848,27.848l11.312-11.312l-24.976-24.976c30.848-19.616,57.072-45.84,76.688-76.688l24.976,24.976l11.312-11.312
			l-27.848-27.848C485.048,331.264,496,290.888,496,248z M369.104,445.792l-11.576-11.576c31.392-18.432,57.872-44.68,76.648-76.728
			l11.616,11.616C426.624,400.296,400.296,426.624,369.104,445.792z M453.944,354.624l-11.872-11.872
			c4.416-9.072,8.344-18.472,11.512-28.296l-15.224-4.92c-2.36,7.304-5.232,14.304-8.336,21.168l-6.856-6.856
			c10.208-15.464,8.52-36.536-5.08-50.136c-13.6-13.608-34.672-15.296-50.136-5.08l-11.784-11.784l5.608-5.608
			c9.328-9.328,9.328-24.504,0-33.832l-22.528-22.528c-9.328-9.328-24.504-9.328-33.832,0l-5.608,5.608l-11.216-11.216
			l16.864-16.864c3.016-3.016,4.68-7.024,4.68-11.296c0-4.264-1.664-8.272-4.68-11.288l-16.896-16.896
			c-6.232-6.232-16.352-6.224-22.576,0L249.112,149.8l-6.264-6.264c9.688-15.992,5.72-39.336-10.6-55.656
			c-18.64-18.64-46.448-21.176-62-5.632c-15.536,15.536-13.008,43.352,5.632,62c10.432,10.432,23.728,15.816,36.144,15.816
			c7,0,13.68-1.792,19.448-5.272l6.328,6.328l-16.872,16.872c-6.224,6.224-6.224,16.352,0,22.576l16.888,16.888
			c3.016,3.016,7.024,4.68,11.288,4.68c4.272,0,8.28-1.664,11.296-4.68l16.864-16.864l11.216,11.216l-5.608,5.608
			c-9.328,9.328-9.328,24.504,0,33.832l22.528,22.528c4.664,4.664,10.792,7,16.92,7c6.128,0,12.256-2.336,16.92-7l5.608-5.608
			l11.784,11.784c-10.208,15.464-8.52,36.536,5.088,50.136c7.768,7.768,17.976,11.656,28.184,11.656
			c7.656,0,15.32-2.192,21.952-6.568l10.584,10.584c-18.176,32.552-44.816,58.92-76.648,76.728l-10.616-10.616
			c10.208-15.464,8.52-36.536-5.08-50.136c-13.608-13.608-34.672-15.296-50.136-5.08l-11.784-11.784l5.608-5.608
			c9.328-9.328,9.328-24.504,0-33.832l-22.528-22.528c-9.328-9.328-24.504-9.328-33.832,0l-5.608,5.608L200.6,277.296l16.864-16.864
			c3.016-3.016,4.68-7.024,4.68-11.296c0-4.264-1.664-8.272-4.68-11.288l-16.896-16.896c-6.224-6.232-16.344-6.224-22.576,0
			l-16.872,16.872l-6.264-6.264c9.688-15.992,5.72-39.336-10.6-55.656c-18.648-18.648-46.456-21.176-62-5.632
			c-15.536,15.536-13.008,43.352,5.632,62c10.432,10.432,23.728,15.816,36.144,15.816c7,0,13.68-1.792,19.448-5.272l6.328,6.328
			l-16.872,16.872c-6.224,6.224-6.224,16.352,0,22.576l16.888,16.888c3.016,3.016,7.024,4.68,11.288,4.68
			c4.272,0,8.28-1.664,11.296-4.68l16.864-16.864l11.216,11.216l-5.608,5.608c-9.328,9.328-9.328,24.504,0,33.832l22.528,22.528
			c4.664,4.664,10.792,7,16.92,7s12.256-2.336,16.92-7l5.608-5.608l11.784,11.784c-10.208,15.464-8.52,36.536,5.088,50.136
			c7.768,7.768,17.976,11.656,28.184,11.656c7.656,0,15.32-2.192,21.952-6.568l6.904,6.904C305.336,441.576,277.304,448,248,448
			c-110.28,0-200-89.72-200-200S137.72,48,248,48s200,89.72,200,200c0,10.312-0.792,20.664-2.352,30.784l15.816,2.44
			C463.144,270.304,464,259.128,464,248c0-119.104-96.896-216-216-216S32,128.896,32,248s96.896,216,216,216
			c33.744,0,65.952-7.848,94.8-21.888l11.832,11.832C322.68,470.552,286.432,480,248,480C120.072,480,16,375.928,16,248
			S120.072,16,248,16s232,104.072,232,232C480,286.432,470.552,322.68,453.944,354.624z M406.76,318.76
			c-9.312,9.296-24.44,9.288-33.736,0c-9.296-9.296-9.296-24.432,0-33.736c4.656-4.648,10.76-6.976,16.872-6.976
			c6.104,0,12.216,2.328,16.864,6.976C416.064,294.328,416.064,309.464,406.76,318.76z M352.776,234.32
			c0,2.12-0.824,4.112-2.32,5.608l-22.528,22.528c-2.992,2.992-8.216,2.992-11.208,0l-22.528-22.528
			c-1.496-1.496-2.32-3.488-2.32-5.608s0.816-4.112,2.312-5.608l22.528-22.528c1.496-1.496,3.488-2.32,5.608-2.32
			s4.112,0.824,5.608,2.32l22.528,22.528C351.952,230.208,352.776,232.2,352.776,234.32z M249.112,206.104l-16.864-16.816
			l44.992-45.048l16.896,16.84L249.112,206.104z M226.56,138.56c-9.304,9.304-26.96,6.768-39.368-5.632
			c-12.408-12.408-14.936-30.072-5.632-39.368c3.784-3.784,8.952-5.608,14.584-5.608c8.216,0,17.424,3.88,24.784,11.24
			C233.336,111.6,235.864,129.256,226.56,138.56z M318.76,406.76c-9.312,9.296-24.44,9.296-33.736,0
			c-9.296-9.296-9.296-24.432,0-33.736c4.656-4.648,10.76-6.976,16.872-6.976c6.104,0,12.216,2.328,16.864,6.976
			C328.064,382.328,328.064,397.464,318.76,406.76z M264.776,322.32c0,2.12-0.824,4.112-2.32,5.608l-22.528,22.528
			c-2.992,2.992-8.216,2.992-11.208,0l-22.528-22.528c-1.496-1.496-2.32-3.488-2.32-5.608s0.816-4.112,2.312-5.608l22.528-22.528
			c1.496-1.496,3.488-2.32,5.608-2.32s4.112,0.824,5.608,2.32l22.528,22.528C263.952,318.208,264.776,320.2,264.776,322.32z
			 M161.112,294.104l-16.864-16.816l44.992-45.048l16.896,16.84L161.112,294.104z M138.56,226.56
			c-9.304,9.296-26.968,6.776-39.368-5.632c-12.408-12.408-14.936-30.072-5.632-39.368c3.784-3.784,8.952-5.608,14.584-5.608
			c8.216,0,17.424,3.88,24.784,11.24C145.336,199.6,147.864,217.256,138.56,226.56z"/>
	</g>
</g>
<g>
</g>
<g>
</g>
<g>
</g>
<g>
</g>
<g>
</g>
<g>
</g>
<g>
</g>
<g>
</g>
<g>
</g>
<g>
</g>
<g>
</g>
<g>
</g>
<g>
</g>
<g>
</g>
<g>
</g>
</svg>
