<svg xmlns="http://www.w3.org/2000/svg" xmlns:xlink="http://www.w3.org/1999/xlink" viewBox="0 0 4096 4096" xmlns:v="https://vecta.io/nano"><style><![CDATA[.L{stroke-miterlimit:10}]]></style><path d="M1384.6 2769.4c-2.2 3.6-5.2 9.1-9 16.4-1.2 3.4-3.3 8.2-6.4 14.4-.7 1-1.5 1.5-2.6 1.5.1 0-5.2-1.9-15.8-5.8-10.7-3.9-19.4-5.8-26.3-5.8-20.1 0-30.2 8.9-30.2 26.6 0 9.8 7 18.4 21.1 25.7 23.7 12.3 36.8 19.4 39.3 21.3 14.1 11.3 21.1 26.4 21.1 45.6 0 24.5-9.7 43.8-29 57.9-17.4 12.7-38.7 19-64.1 19-11.8 0-18.1-1.3-19-3.9-.4-4.2-1.4-10.2-2.9-18.2l-4.1-14.8c-.3-1-.5-1.9-.5-2.8 0-1.5.8-2.3 2.5-2.3 2.6 0 6.6.3 12 .8s9.5.8 12.2.8c33.9 0 50.8-10.9 50.8-32.8 0-10.7-6.8-20-20.5-27.9L1275 2863c-13.8-11.1-20.7-26.1-20.7-44.9 0-20.3 6.7-36.6 20-48.8 13-11.8 29.8-17.7 50.5-17.7 8.7 0 18.8 1.4 30.2 4.3 12.3 3.2 21.6 7 27.9 11.5.6.3 1.1 1 1.7 2zm187.7 65c0 .4-.2 1.4-.5 3-4.3 25-6.4 46.6-6.4 64.7 0 1.1 1.4 25.6 4.1 73.6l.2 2.3c.1 3.2-1.3 4.8-4.3 4.8s-7.5.4-13.6 1.1-10.6 1.1-13.5 1.1c-2.1 0-3.7-3.8-4.8-11.5-1.1-7.6-2.1-11.5-3.1-11.5-.7 0-3.6 2.1-8.9 6.4-6.4 5.2-12.5 9.2-18 12-8.6 4.4-17.3 6.6-25.9 6.6-21.2 0-39.1-8.5-53.6-25.4-13.8-16.2-20.6-35-20.6-56.5 0-24.3 6.9-44.3 20.8-60.1 14.5-16.5 33.7-24.7 57.4-24.7 16.7 0 31.3 5.8 43.8 17.4 1.9 2.2 4.8 5.4 8.7 9.5.3.3.7.5 1 .5.7 0 1.6-3.4 2.8-10.3s2.7-10.3 4.6-10.3c2.9 0 8.5.8 16.6 2.5 8.7 1.6 13.2 3.3 13.2 4.8zm-41.8 68.5c0-13.4-4-25-12-34.6-8.4-10.4-19.2-15.6-32.3-15.6s-24 5.1-32.8 15.4c-8.4 9.8-12.6 21.4-12.6 34.7 0 13.2 4.2 24.7 12.6 34.4 8.7 10.2 19.7 15.2 32.8 15.2 12.8 0 23.5-5.2 32.1-15.6 8.2-9.5 12.2-20.8 12.2-33.9zm113.3-147.5l-.2 2.1c-2.4 40.6-3.6 75.6-3.6 104.7l1.4 116.7c0 2.5-.9 3.8-2.6 3.8h-31.3c-2 0-3-1.3-3-3.8l.6-116.7c0-11.8-.6-29.5-1.7-53.2l-1.7-53c0-2.2 1.1-3.3 3.4-3.3 2 0 4.9.2 8.9.5 3.9.3 6.9.5 8.9.5 2.1 0 5.1-.2 9.2-.5 4-.3 7-.5 9-.5 1.9.1 2.8 1 2.7 2.7zm127.1 197.2c0 2.4-.2 5.7-.7 9.8l-1 10c-.1 2-.3 3.2-.5 3.6-.4.8-1.5 1.5-3.1 2.3-9 4.3-23.1 6.4-42.3 6.4-25.6 0-38.4-11.6-38.4-34.7 0-9.3.2-23.2.7-41.9l.7-41.9c0-4.5-2.2-6.9-6.7-7.2-4 0-8-.1-12-.2-2.3-.5-3.4-5-3.4-13.4 0-3.2.2-6.5.7-10 .3-2.6 2.1-4.2 5.2-4.8 2.7 0 5.4-.1 8-.2 5-.2 7.5-2.5 7.5-6.7 0-4.4-.1-11-.4-20l-.4-20.2c0-8 1.5-12 4.6-12 1 0 11.3 1.7 30.8 5.1 2.5.3 3.8 1.5 3.8 3.6 0 4.8-.4 12-1.1 21.6s-1.1 16.8-1.1 21.6c0 3.2 1.5 4.8 4.4 4.8h39.3c1.9 0 2.8.7 2.8 2s-.2 3.4-.6 6.3-.6 5.1-.6 6.5c0 1.6.1 4.2.2 7.5l.2 7.5c0 2.1-1.5 3.1-4.6 3.1-4.4 0-11-.3-19.8-.9-8.9-.6-15.5-.9-19.8-.9-.9 0-1.5 3.1-2 9.3-.5 7.8-.8 18.6-.8 32.6v24.4c0 9.4.9 16 2.6 19.7 2.6 5.7 8 8.5 16.2 8.5 3.4 0 8.4-.7 14.9-2.2 6.6-1.5 11.4-2.2 14.6-2.2 1.5.3 2.1 1.2 2.1 3.2zm164.8-83.9c0 18.5-.5 29.6-1.6 33.4-1.4 4.9-14.9 26.4-40.6 64.3-25.6 38-40.8 59.2-45.6 63.7-4.4 3.9-18.5 5.9-42.3 5.9-2.8 0-4.7-.3-5.5-.9s-2.7-4.6-5.6-11.9-4.3-11.7-4.3-13.1c0-2.4 2.9-3.6 8.7-3.6 12.2 0 21.2-1.7 27-5.2 2-1.2 4.9-5 8.9-11.3s6-10.6 6-12.8c0-3-7.9-14.5-23.8-34.6-16.7-21.3-26.1-34.8-28-40.5-1.5-4.5-2.3-15.2-2.3-32.1l.4-37.7c0-2.4 1.3-3.6 3.9-3.6 3.5 0 8.7.2 15.5.7l15.5.7c1.7 0 2.6 1.1 2.6 3.4 0 3.1-.2 7.6-.5 13.8l-.5 13.8c0 13.3.4 23.3 1.3 29.8.7 4.2 6.6 14.5 17.9 31s18.2 24.7 20.8 24.7c1.9 0 7.8-8.1 17.7-24.3s15.2-26.2 15.9-30.1c.9-5.5 1.3-15.4 1.3-29.8 0-3.2-.3-7.8-1-14s-1-10.8-1-13.8c0-2.7.9-4.1 2.6-4.1 3.5 0 8.8-.2 15.8-.7s12.3-.7 15.8-.7c3.4-.2 5 13 5 39.6zm319.4 110.3c0 2.5-1.6 3.8-4.9 3.8-1.9 0-4.7-.2-8.6-.5l-8.8-.5c-2.1 0-5.2.2-9.4.5l-9.4.5c-2.5 0-3.8-1.3-3.8-3.8 0-9.8.3-24.6.9-44.3l.9-44.3c0-4.3-1.3-6.7-3.8-7.4-3.3-.9-22.2-1.3-56.7-1.3-34.4 0-53.3.4-56.7 1.3-2.4.7-3.6 3.1-3.6 7.4 0 9.6.3 24.1.8 43.4l.8 43.4c0 3.6-1.4 5.4-4.1 5.4-2.1 0-5.2-.2-9.3-.5-4.2-.3-7.3-.5-9.3-.5s-4.9.2-8.8.5-6.8.5-8.8.5c-2.7 0-4.1-1.3-4.1-3.8 0-12 .6-30.1 1.7-54.2l1.7-54.2c0-12.7-.6-31.7-1.7-57.1l-1.7-57.1c0-2.4 1.4-3.6 4.1-3.6 2 0 5 .2 9 .5s7.1.5 9.2.5c2 0 5-.2 9.2-.5s7.2-.5 9.2-.5c2.5 0 3.8 1 3.8 3 0 9.4-.4 23.5-1.2 42.4l-1.2 42.4c0 3.1 1.1 4.9 3.4 5.6 2.7 1 22 1.5 57.7 1.5 35 0 54.1-.5 57.4-1.5 2.5-.7 3.8-3 3.8-7 0-9.2-.3-23-.9-41.5l-.9-41.5c0-2.2 1.3-3.3 3.8-3.3 2.1 0 5.1.2 9.1.5s7 .5 9.1.5c2 0 4.9-.2 8.9-.5 3.9-.3 6.9-.5 8.9-.5 2.8 0 4.3 1.2 4.3 3.6 0 12.7-.5 31.7-1.6 57.1s-1.6 44.4-1.6 57.1c0 12 .6 30.1 1.8 54.2l1.4 54.3zm185.1-76.1c0 22.8-7.5 42.3-22.5 58.5-15.3 16.7-34.3 25.1-56.9 25.1-22.7 0-41.7-8.3-57-24.9-15-16.1-22.5-35.5-22.5-58.3s7.5-42.3 22.5-58.3c15.4-16.4 34.4-24.6 57-24.6 22.5 0 41.4 8.2 56.7 24.6 15.2 15.9 22.7 35.2 22.7 57.9zm-34.5.4c0-13.3-4.1-24.7-12.3-34.1-8.5-9.9-19.3-14.9-32.5-14.9-13.1 0-24 4.9-32.6 14.8-8.2 9.5-12.3 20.9-12.3 34.3 0 13.1 4.2 24.5 12.5 34.1 8.7 10.2 19.6 15.2 32.5 15.2 13 0 23.8-5.1 32.5-15.2 8.1-9.7 12.2-21.1 12.2-34.2zm310.1 73.4c0 4.3-1.3 6.4-3.8 6.4-1.6 0-4.1-.2-7.5-.5l-7.6-.5-16.8.6c-2.3 0-3.4-2.6-3.4-7.7 0-5 .2-12.5.6-22.5l.6-22.5-.3-46.2c-.9-11.3-3.2-19-6.9-23.3-4.3-4.6-11.9-6.9-22.8-6.9-6.9 0-14.6 3.3-23.3 9.8-9 6.9-13.6 13.7-13.9 20.3-.4 8.5-.7 24.1-.7 46.7 0 5.4.2 13.4.7 24.1l.7 24.1c0 3-1 4.4-3 4.4s-4.8-.2-8.6-.5-6.6-.5-8.6-.5c-1.7 0-4.3.1-7.7.3s-6 .3-7.7.3c-2.2 0-3.3-1.6-3.3-4.8 0-5.2.2-13.1.5-23.7l.5-23.7v-39.5c0-12.3-1.5-21.1-4.4-26.4-4.2-7.4-12.1-11.1-23.8-11.1-6.9 0-15.1 2.9-24.6 8.7-10.5 6.3-15.7 12.7-15.7 19.2v47.9l.4 48.7c0 3.2-1.3 4.8-3.8 4.8h-30.5c-2.2 0-3.3-1.5-3.3-4.4l.4-79.8c0-20-2.1-39.9-6.4-59.8-.3-1.4-.5-2.6-.5-3.4 0-1.4.5-2.2 1.5-2.5 4-.4 9.9-1.3 17.7-2.5 3.6-1.1 9-2.3 16.2-3.6l1.3-.2c1.3 0 2.5 3.9 3.7 11.6 1.1 7.7 2.2 11.6 3 11.6l8.2-7.2c6.4-5.6 12.9-10 19.3-13.3 9.3-4.8 18.6-7.2 27.9-7.2 25.1 0 41.1 10.3 48 30.8 6.8-8.7 15.2-16 25.2-21.6 10.7-6.1 21.3-9.2 31.8-9.2 20.2 0 34.2 5.9 42 17.7 5.6 8.7 8.4 22.6 8.4 41.5 0 3.6-.1 9.2-.3 16.7l-.3 16.7c0 6.9.2 17.2.5 31.1l.4 31zm174.6-81.9c0 8.1-3.5 13.5-10.5 16.2-4.7 1.7-38.5 5-101.4 9.7 1.4 9.6 6.7 17.8 15.9 24.6 8.7 6.4 18.1 9.7 28.2 9.7 17.3 0 33.1-5.6 47.5-16.7 1.7-1.4 3.5-2.8 5.2-4.3.9 0 1.4.1 1.7.3s2.3 4 6.1 11.4 5.7 11.3 5.7 11.9c0 .7-.9 1.9-2.6 3.8-16.1 17-36.7 25.6-61.8 25.6-25.3 0-45.6-7.6-60.6-22.7-15.1-15.1-22.6-35.3-22.6-60.6 0-22.5 7.2-42.1 21.6-58.8 15.2-17.4 33.8-26.1 55.9-26.1 20.5 0 37.7 7.5 51.5 22.6 13.5 14.6 20.2 32.4 20.2 53.4zm-39-10c0-9.1-3.6-17.1-10.7-24.1-7.2-7-15.2-10.5-24.2-10.5-10.1 0-19 4-26.8 12.1s-11.7 17.2-11.7 27.2c0 2.3 2 3.4 5.9 3.4 16.2 0 35.5-1.6 58-4.9 6.4-.8 9.5-1.9 9.5-3.2z" fill="#f23900"/><linearGradient id="A" gradientUnits="userSpaceOnUse" x1="2328.351" y1="1724.749" x2="3079.072" y2="1724.749"><stop offset="0" stop-color="#f23900"/><stop offset=".174" stop-color="#f05710"/><stop offset=".383" stop-color="#ef731f"/><stop offset=".591" stop-color="#ee8829"/><stop offset=".798" stop-color="#ed9430"/><stop offset="1" stop-color="#ed9832"/></linearGradient><linearGradient id="B" gradientUnits="userSpaceOnUse" x1="2327.851" y1="1724.749" x2="3079.572" y2="1724.749"><stop offset="0" stop-color="#f23900"/><stop offset=".174" stop-color="#f05710"/><stop offset=".383" stop-color="#ef731f"/><stop offset=".591" stop-color="#ee8829"/><stop offset=".798" stop-color="#ed9430"/><stop offset="1" stop-color="#ed9832"/></linearGradient><path d="M3037.1 1779.3h-707.6c-.6 0-1.2-.5-1.2-1.2v-108H3037c23.2 0 42 18.8 42 42v25.1c.1 23.3-18.7 42.1-41.9 42.1z" fill="url(#A)" stroke="url(#B)" class="L"/><linearGradient id="C" gradientUnits="userSpaceOnUse" x1="2412.175" y1="2184.968" x2="3162.896" y2="2184.968"><stop offset="0" stop-color="#f23900"/><stop offset=".174" stop-color="#f05710"/><stop offset=".383" stop-color="#ef731f"/><stop offset=".591" stop-color="#ee8829"/><stop offset=".798" stop-color="#ed9430"/><stop offset="1" stop-color="#ed9832"/></linearGradient><linearGradient id="D" gradientUnits="userSpaceOnUse" x1="2411.675" y1="2184.968" x2="3163.396" y2="2184.968"><stop offset="0" stop-color="#f23900"/><stop offset=".174" stop-color="#f05710"/><stop offset=".383" stop-color="#ef731f"/><stop offset=".591" stop-color="#ee8829"/><stop offset=".798" stop-color="#ed9430"/><stop offset="1" stop-color="#ed9832"/></linearGradient><path d="M3120.9 2239.5h-707.6c-.6 0-1.2-.5-1.2-1.2v-108h708.7c23.2 0 42 18.8 42 42v25.1c.1 23.3-18.7 42.1-41.9 42.1z" fill="url(#C)" stroke="url(#D)" class="L"/><linearGradient id="E" gradientUnits="userSpaceOnUse" x1="2471.203" y1="2402.431" x2="3221.924" y2="2402.431"><stop offset="0" stop-color="#f23900"/><stop offset=".174" stop-color="#f05710"/><stop offset=".383" stop-color="#ef731f"/><stop offset=".591" stop-color="#ee8829"/><stop offset=".798" stop-color="#ed9430"/><stop offset="1" stop-color="#ed9832"/></linearGradient><linearGradient id="F" gradientUnits="userSpaceOnUse" x1="2470.703" y1="2402.431" x2="3222.424" y2="2402.431"><stop offset="0" stop-color="#f23900"/><stop offset=".174" stop-color="#f05710"/><stop offset=".383" stop-color="#ef731f"/><stop offset=".591" stop-color="#ee8829"/><stop offset=".798" stop-color="#ed9430"/><stop offset="1" stop-color="#ed9832"/></linearGradient><path d="M3173.5 2465.4h-694.6a7.6 7.6 0 0 1-7.6-7.6v-111.9a6.49 6.49 0 0 1 6.5-6.5h695.8c26.8 0 48.5 21.7 48.5 48.5v29c-.2 26.8-21.9 48.5-48.6 48.5z" fill="url(#E)" stroke="url(#F)" class="L"/><linearGradient id="G" gradientUnits="userSpaceOnUse" x1="2471.203" y1="1951.678" x2="3221.924" y2="1951.678"><stop offset="0" stop-color="#f23900"/><stop offset=".174" stop-color="#f05710"/><stop offset=".383" stop-color="#ef731f"/><stop offset=".591" stop-color="#ee8829"/><stop offset=".798" stop-color="#ed9430"/><stop offset="1" stop-color="#ed9832"/></linearGradient><linearGradient id="H" gradientUnits="userSpaceOnUse" x1="2470.703" y1="1951.678" x2="3222.424" y2="1951.678"><stop offset="0" stop-color="#f23900"/><stop offset=".174" stop-color="#f05710"/><stop offset=".383" stop-color="#ef731f"/><stop offset=".591" stop-color="#ee8829"/><stop offset=".798" stop-color="#ed9430"/><stop offset="1" stop-color="#ed9832"/></linearGradient><g class="L"><path d="M3161.3 2030.5H2491c-10.9 0-19.8-8.9-19.8-19.8v-119.1c0-10.3 8.3-18.6 18.6-18.6h671.4c33.5 0 60.6 27.2 60.6 60.6v36.3c.1 33.4-27 60.6-60.5 60.6z" fill="url(#G)" stroke="url(#H)"/><path d="M1819.5 2393.7l183.6-4c12.6-27.6 30.6-41.9 41.2-37.9 7.8 2.9 12.6 15.9 13.3 25.7 1.1 14.3-6.7 17.8-4.9 29.8 2.2 14.2 14.1 14.9 16.4 27.9 2.3 12.9-6.5 29.2-19.9 36-15 7.7-34.4 2.8-45.9-12.6l-184.7-1.5" fill="#f9f9f9" stroke="#000" stroke-width="9"/></g><path d="M1652.4 2234.9c-101.9-24.9-189.4-46.3-241.8 7.8-49.2 50.7-52.3 152-15.2 216.1 73.2 126.5 287.8 82.2 394.6 60.1 66.9-13.8 96.1-31.1 105.4-57.5 17.7-50.4-43.8-115.2-60.6-132.9-59.3-62.6-129.1-80.6-182.4-93.6z" fill="#a85816"/><linearGradient id="I" gradientUnits="userSpaceOnUse" x1="2062.467" y1="1473.697" x2="2191.643" y2="1523.286"><stop offset="0" stop-color="#f23900"/><stop offset=".174" stop-color="#f05710"/><stop offset=".383" stop-color="#ef731f"/><stop offset=".591" stop-color="#ee8829"/><stop offset=".798" stop-color="#ed9430"/><stop offset="1" stop-color="#ed9832"/></linearGradient><path d="M2168.6 1583.2l22.9-59.6c12.8-33.4-3.9-70.8-37.2-83.6l-7.2-2.8c-34-13-72.1 3.9-85.1 37.9l-22.5 58.6 129.1 49.5z" fill="url(#I)"/><linearGradient id="J" gradientUnits="userSpaceOnUse" x1="1245.897" y1="1639.006" x2="2682.849" y2="2190.638"><stop offset="0" stop-color="#f23900"/><stop offset=".174" stop-color="#f05710"/><stop offset=".383" stop-color="#ef731f"/><stop offset=".591" stop-color="#ee8829"/><stop offset=".798" stop-color="#ed9430"/><stop offset="1" stop-color="#ed9832"/></linearGradient><linearGradient id="K" gradientUnits="userSpaceOnUse" x1="1245.43" y1="1638.827" x2="2683.316" y2="2190.817"><stop offset="0" stop-color="#f23900"/><stop offset=".174" stop-color="#f05710"/><stop offset=".383" stop-color="#ef731f"/><stop offset=".591" stop-color="#ee8829"/><stop offset=".798" stop-color="#ed9430"/><stop offset="1" stop-color="#ed9832"/></linearGradient><path d="M2582.4 2433.3c-6.1 25.8-14.1 53.8-24.8 83.2a755.82 755.82 0 0 1-17.8 44.3l-1436.1-551.3c20.5-53.9 120.2-299.1 394-431.9 295.2-143.1 570-47.6 618.2-29.9 25.5 9.5 101.5 39.1 186.6 101.7 21.4 14.1 49.1 33.9 79.5 60 27.8 24 66.8 58 105.4 111.4 39.8 55.1 59.8 104.5 70.6 131.5 13.9 34.7 22.8 66 26.3 79.2 2.8 10.4 7.4 28.2 11.8 50.8 0 0 8.1 41.2 11.6 83.2 10 121-20 245.5-25.3 267.8z" fill="url(#J)" stroke="url(#K)" class="L"/><linearGradient id="L" gradientUnits="userSpaceOnUse" x1="996.023" y1="2560.801" x2="2687.827" y2="2560.801"><stop offset="0" stop-color="#f23900"/><stop offset=".174" stop-color="#f05710"/><stop offset=".383" stop-color="#ef731f"/><stop offset=".591" stop-color="#ee8829"/><stop offset=".798" stop-color="#ed9430"/><stop offset="1" stop-color="#ed9832"/></linearGradient><linearGradient id="M" gradientUnits="userSpaceOnUse" x1="995.523" y1="2560.801" x2="2688.327" y2="2560.801"><stop offset="0" stop-color="#f23900"/><stop offset=".174" stop-color="#f05710"/><stop offset=".383" stop-color="#ef731f"/><stop offset=".591" stop-color="#ee8829"/><stop offset=".798" stop-color="#ed9430"/><stop offset="1" stop-color="#ed9832"/></linearGradient><path d="M2654.8 2603.7H1029c-18.2 0-33-14.8-33-33v-19.8c0-18.2 14.8-33 33-33h1625.8c18.2 0 33 14.8 33 33v19.8c0 18.2-14.7 33-33 33z" fill="url(#L)" stroke="url(#M)" class="L"/><g fill="#c9c9c9"><use xlink:href="#O"/><use xlink:href="#O" x="-372.6" y="192.4"/><path d="M2432.4 1384.5c7.8 2.6 33.3-26.7 43.9-62.5 13.3-45-1.4-85.7-14.4-120.2-21.7-57.4-39.4-58.6-48.2-100.9-12.1-58.3 12.9-98.3 4.8-100.9-9.6-3.1-59.1 48.4-53 105.2 4.6 42.9 36.6 47 57.8 113.8 11.7 36.8 13.1 70.6 13.4 81.6 1.2 51.2-11.7 81.4-4.3 83.9z"/></g><g fill="#f23900"><path d="M1259.2 3100.1l-29.1 102.9H1216l-21.2-75.2c-.9-3.2-1.5-6.7-1.6-10.5h-.3c-.3 3.5-.9 7-1.9 10.3l-21.3 75.3h-14l-30.1-102.9h13.3l21.9 78.9c.9 3.3 1.5 6.7 1.7 10.3h.4c.2-2.5 1-6 2.2-10.3l22.7-78.9h11.5l21.8 79.5c.8 2.7 1.3 5.9 1.7 9.6h.3c.2-2.5.8-5.8 1.9-9.9l21-79.2h13.2z"/><use xlink:href="#P"/><use xlink:href="#Q"/><path d="M1462.9 3200.4v-12.6c6.4 4.7 13.5 7.1 21.2 7.1 10.3 0 15.5-3.4 15.5-10.3 0-2-.4-3.6-1.3-5s-2.1-2.6-3.6-3.6c-1.5-1.1-3.3-2-5.3-2.8l-6.6-2.6c-3.3-1.3-6.1-2.6-8.6-3.9a27.3 27.3 0 0 1-6.2-4.4c-1.6-1.6-2.9-3.5-3.7-5.6s-1.3-4.6-1.3-7.4c0-3.4.8-6.5 2.4-9.1 1.6-2.7 3.7-4.9 6.3-6.7s5.6-3.1 9-4.1c3.4-.9 6.9-1.4 10.4-1.4 6.4 0 12.1 1.1 17.1 3.3v11.9c-5.4-3.5-11.6-5.3-18.7-5.3-2.2 0-4.2.3-6 .8s-3.3 1.2-4.6 2.1-2.2 2-2.9 3.3-1 2.7-1 4.2c0 1.9.3 3.5 1 4.8s1.7 2.4 3 3.4 3 1.9 4.9 2.7l6.5 2.7c3.3 1.2 6.2 2.5 8.8 3.8s4.8 2.8 6.6 4.4 3.2 3.6 4.2 5.7c1 2.2 1.5 4.7 1.5 7.7 0 3.6-.8 6.8-2.4 9.5s-3.7 4.9-6.4 6.7-5.8 3.1-9.3 3.9c-3.5.9-7.2 1.3-11 1.3-7.4-.2-13.9-1.6-19.5-4.5zm100.9 1.9c-2.8 1.5-6.4 2.3-11 2.3-12.9 0-19.3-7.2-19.3-21.5v-43.5h-12.6v-10h12.6v-17.9l11.8-3.8v21.7h18.5v10h-18.5v41.4c0 4.9.8 8.4 2.5 10.5s4.4 3.2 8.3 3.2c3 0 5.5-.8 7.7-2.4v10z"/><use xlink:href="#R"/><path d="M1692.6 3141.5c-2.1-1.6-5-2.4-8.9-2.4-5 0-9.2 2.4-12.6 7.1s-5.1 11.2-5.1 19.4v37.4h-11.8v-73.5h11.8v15.1h.3c1.7-5.2 4.2-9.2 7.7-12.1 3.4-2.9 7.3-4.3 11.5-4.3 3.1 0 5.4.3 7 1v12.3zm76.4-11.9l-29.3 73.5h-11.5l-27.8-73.5h12.9l18.7 53.4c1.4 3.9 2.2 7.3 2.6 10.3h.3c.5-3.7 1.2-7 2.3-10l19.5-53.7h12.3z"/><use xlink:href="#S"/><path d="M1990.3 3129.6l-22 73.5h-12.2l-15.1-52.6c-.6-2-1-4.3-1.1-6.8h-.3c-.1 1.7-.6 3.9-1.5 6.7l-16.4 52.7h-11.8l-22.2-73.5h12.3l15.2 55.2c.5 1.7.8 3.9 1 6.6h.6c.1-2.1.6-4.4 1.3-6.7l16.9-55.1h10.8l15.2 55.4c.5 1.8.8 4 1.1 6.6h.6c.1-1.9.5-4.1 1.2-6.6l14.9-55.4h11.5zm74.7 73.4h-11.8v-42.3c0-15.3-5.7-23-17.1-23-5.7 0-10.6 2.2-14.5 6.6s-5.9 10.1-5.9 17v41.6H2004v-108.8h11.8v47.5h.3c5.6-9.3 13.7-13.9 24.1-13.9 16.5 0 24.8 10 24.8 29.9v45.4z"/><use xlink:href="#S" x="306.4"/><path d="M2224.9 3203h-11.8v-41.9c0-15.6-5.7-23.4-17.1-23.4-5.9 0-10.7 2.2-14.6 6.6s-5.8 10-5.8 16.8v41.9h-11.8v-73.5h11.8v12.2h.3c5.5-9.3 13.6-13.9 24.1-13.9 8 0 14.2 2.6 18.4 7.8 4.3 5.2 6.4 12.7 6.4 22.5v44.9z"/><use xlink:href="#Q" x="931.3"/><path d="M2388.4 3204.7c-10.9 0-19.5-3.4-26-10.3s-9.7-16-9.7-27.3c0-12.3 3.4-22 10.1-28.9s15.9-10.4 27.3-10.4c11 0 19.5 3.4 25.6 10.1s9.2 16.1 9.2 28c0 11.7-3.3 21.1-9.9 28.2s-15.4 10.6-26.6 10.6zm.9-67c-7.6 0-13.5 2.6-17.9 7.7s-6.6 12.2-6.6 21.3c0 8.7 2.2 15.6 6.7 20.6 4.4 5 10.4 7.5 17.9 7.5 7.6 0 13.5-2.5 17.5-7.4 4.1-4.9 6.1-11.9 6.1-21 0-9.2-2-16.3-6.1-21.2-4.2-5-10-7.5-17.6-7.5z"/><use xlink:href="#T"/><use xlink:href="#P" x="1294.3"/><use xlink:href="#R" x="1070.8"/><path d="M2782.8 3129.6l-29.3 73.5H2742l-27.8-73.5h12.9l18.7 53.4c1.4 3.9 2.2 7.3 2.6 10.3h.3c.5-3.7 1.2-7 2.3-10l19.5-53.7h12.3zm70.8 39.6h-51.9c.2 8.2 2.4 14.5 6.6 18.9s10 6.7 17.4 6.7c8.3 0 15.9-2.7 22.8-8.2v11c-6.5 4.7-15 7-25.6 7-10.4 0-18.5-3.3-24.5-10-5.9-6.7-8.9-16.1-8.9-28.2 0-11.4 3.2-20.7 9.7-27.9s14.5-10.8 24.1-10.8 17 3.1 22.3 9.3 7.9 14.8 7.9 25.9v6.3zm-12-9.9c0-6.8-1.7-12.1-4.9-15.9s-7.7-5.7-13.5-5.7c-5.5 0-10.3 2-14.1 6-3.9 4-6.3 9.2-7.2 15.6h39.7z"/><use xlink:href="#T" x="467.9"/><path d="M2990.4 3200.4v-12.6c6.4 4.7 13.5 7.1 21.2 7.1 10.3 0 15.5-3.4 15.5-10.3 0-2-.4-3.6-1.3-5s-2.1-2.6-3.6-3.6c-1.5-1.1-3.3-2-5.3-2.8l-6.6-2.6c-3.3-1.3-6.1-2.6-8.6-3.9a27.3 27.3 0 0 1-6.2-4.4c-1.6-1.6-2.9-3.5-3.7-5.6s-1.3-4.6-1.3-7.4c0-3.4.8-6.5 2.4-9.1 1.6-2.7 3.7-4.9 6.3-6.7s5.6-3.1 9-4.1c3.4-.9 6.9-1.4 10.4-1.4 6.4 0 12.1 1.1 17.1 3.3v11.9c-5.4-3.5-11.6-5.3-18.7-5.3-2.2 0-4.2.3-6 .8s-3.3 1.2-4.6 2.1-2.2 2-2.9 3.3-1 2.7-1 4.2c0 1.9.3 3.5 1 4.8s1.7 2.4 3 3.4 3 1.9 4.9 2.7l6.5 2.7c3.3 1.2 6.2 2.5 8.8 3.8s4.8 2.8 6.6 4.4 3.2 3.6 4.2 5.7c1 2.2 1.5 4.7 1.5 7.7 0 3.6-.8 6.8-2.4 9.5s-3.7 4.9-6.4 6.7-5.8 3.1-9.3 3.9c-3.5.9-7.1 1.3-11 1.3-7.4-.2-14-1.6-19.5-4.5z"/></g><defs ><path id="O" d="M2043.3 1215.4c7.8 2.9 33.3-30 43.9-70.1 13.3-50.4-1.4-96.1-14.4-134.8-21.7-64.4-39.4-65.7-48.2-113.2-12.1-65.4 12.9-110.3 4.8-113.2-9.6-3.4-59.1 54.3-53 118 4.6 48.1 36.6 52.7 57.8 127.6 11.7 41.3 13.1 79.1 13.4 91.5 1.2 57.6-11.7 91.5-4.3 94.2z"/><path id="P" d="M1333.9 3203h-11.8v-42.3c0-15.3-5.7-23-17.1-23-5.7 0-10.6 2.2-14.5 6.6s-5.9 10.1-5.9 17v41.6h-11.8v-108.8h11.8v47.5h.3c5.6-9.3 13.7-13.9 24.1-13.9 16.5 0 24.8 10 24.8 29.9v45.4z"/><path id="Q" d="M1414.5 3129.6l-33.8 85.2c-6 15.2-14.5 22.8-25.4 22.8-3.1 0-5.6-.3-7.7-.9v-10.5c2.5.9 4.9 1.3 7 1.3 5.9 0 10.4-3.5 13.3-10.6l5.9-13.9-28.7-73.3h13.1l19.9 56.5c.2.7.7 2.6 1.5 5.6h.4c.2-1.1.7-3 1.4-5.5l20.9-56.7h12.2z"/><path id="R" d="M1632.1 3203h-11.8v-11.5h-.3c-5.1 8.8-12.7 13.2-22.6 13.2-7.3 0-13-1.9-17.2-5.8-4.1-3.9-6.2-9-6.2-15.4 0-13.7 8.1-21.7 24.2-24l22-3.1c0-12.5-5-18.7-15.1-18.7-8.8 0-16.8 3-24 9v-12.1c7.2-4.6 15.5-6.9 25-6.9 17.3 0 25.9 9.1 25.9 27.4v47.9zm-11.8-37.1l-17.7 2.4c-5.5.8-9.6 2.1-12.3 4.1-2.8 1.9-4.2 5.4-4.2 10.3 0 3.6 1.3 6.5 3.8 8.8 2.6 2.3 6 3.4 10.2 3.4 5.8 0 10.7-2 14.5-6.1s5.7-9.3 5.7-15.5v-7.4z"/><path id="S" d="M1839.8 3169.2h-51.9c.2 8.2 2.4 14.5 6.6 18.9s10 6.7 17.4 6.7c8.3 0 15.9-2.7 22.8-8.2v11c-6.5 4.7-15 7-25.6 7-10.4 0-18.5-3.3-24.5-10-5.9-6.7-8.9-16.1-8.9-28.2 0-11.4 3.2-20.7 9.7-27.9s14.5-10.8 24.1-10.8 17 3.1 22.3 9.3 7.9 14.8 7.9 25.9v6.3zm-12.1-9.9c0-6.8-1.7-12.1-4.9-15.9s-7.7-5.7-13.5-5.7c-5.5 0-10.3 2-14.1 6-3.9 4-6.3 9.2-7.2 15.6h39.7z"/><path id="T" d="M2503.2 3203h-11.8v-11.6h-.3c-4.9 8.9-12.4 13.3-22.7 13.3-17.5 0-26.3-10.4-26.3-31.3v-43.9h11.7v42c0 15.5 5.9 23.2 17.8 23.2 5.7 0 10.5-2.1 14.2-6.3s5.6-9.8 5.6-16.6v-42.3h11.8v73.5z"/></defs></svg>