<?xml version="1.0" encoding="utf-8"?>
<!-- Generator: Adobe Illustrator 22.0.0, SVG Export Plug-In . SVG Version: 6.00 Build 0)  -->
<svg version="1.1" id="Layer_1" xmlns="http://www.w3.org/2000/svg" xmlns:xlink="http://www.w3.org/1999/xlink" x="0px" y="0px"
	 viewBox="0 0 4096 4096" style="enable-background:new 0 0 4096 4096;" xml:space="preserve">
<style type="text/css">
	.st0{fill:#F23900;}
	.st1{fill:url(#SVGID_1_);stroke:url(#SVGID_2_);stroke-miterlimit:10;}
	.st2{fill:url(#SVGID_3_);stroke:url(#SVGID_4_);stroke-miterlimit:10;}
	.st3{fill:url(#SVGID_5_);stroke:url(#SVGID_6_);stroke-miterlimit:10;}
	.st4{fill:url(#SVGID_7_);stroke:url(#SVGID_8_);stroke-miterlimit:10;}
	.st5{fill:#F9F9F9;stroke:#000000;stroke-width:9;stroke-miterlimit:10;}
	.st6{fill:#A85816;}
	.st7{fill:url(#SVGID_9_);}
	.st8{fill:url(#SVGID_10_);stroke:url(#SVGID_11_);stroke-miterlimit:10;}
	.st9{fill:url(#SVGID_12_);stroke:url(#SVGID_13_);stroke-miterlimit:10;}
	.st10{fill:#C9C9C9;}
</style>
<g>
	<path class="st0" d="M1384.6,2769.4c-2.2,3.6-5.2,9.1-9,16.4c-1.2,3.4-3.3,8.2-6.4,14.4c-0.7,1-1.5,1.5-2.6,1.5
		c0.1,0-5.2-1.9-15.8-5.8c-10.7-3.9-19.4-5.8-26.3-5.8c-20.1,0-30.2,8.9-30.2,26.6c0,9.8,7,18.4,21.1,25.7
		c23.7,12.3,36.8,19.4,39.3,21.3c14.1,11.3,21.1,26.4,21.1,45.6c0,24.5-9.7,43.8-29,57.9c-17.4,12.7-38.7,19-64.1,19
		c-11.8,0-18.1-1.3-19-3.9c-0.4-4.2-1.4-10.2-2.9-18.2c-0.9-3.3-2.2-8.2-4.1-14.8c-0.3-1-0.5-1.9-0.5-2.8c0-1.5,0.8-2.3,2.5-2.3
		c2.6,0,6.6,0.3,12,0.8c5.4,0.5,9.5,0.8,12.2,0.8c33.9,0,50.8-10.9,50.8-32.8c0-10.7-6.8-20-20.5-27.9
		c-24.9-14.2-37.6-21.6-38.2-22.1c-13.8-11.1-20.7-26.1-20.7-44.9c0-20.3,6.7-36.6,20-48.8c13-11.8,29.8-17.7,50.5-17.7
		c8.7,0,18.8,1.4,30.2,4.3c12.3,3.2,21.6,7,27.9,11.5C1383.5,2767.7,1384,2768.4,1384.6,2769.4z"/>
	<path class="st0" d="M1572.3,2834.4c0,0.4-0.2,1.4-0.5,3c-4.3,25-6.4,46.6-6.4,64.7c0,1.1,1.4,25.6,4.1,73.6l0.2,2.3
		c0.1,3.2-1.3,4.8-4.3,4.8c-3,0-7.5,0.4-13.6,1.1c-6.1,0.7-10.6,1.1-13.5,1.1c-2.1,0-3.7-3.8-4.8-11.5c-1.1-7.6-2.1-11.5-3.1-11.5
		c-0.7,0-3.6,2.1-8.9,6.4c-6.4,5.2-12.5,9.2-18,12c-8.6,4.4-17.3,6.6-25.9,6.6c-21.2,0-39.1-8.5-53.6-25.4
		c-13.8-16.2-20.6-35-20.6-56.5c0-24.3,6.9-44.3,20.8-60.1c14.5-16.5,33.7-24.7,57.4-24.7c16.7,0,31.3,5.8,43.8,17.4
		c1.9,2.2,4.8,5.4,8.7,9.5c0.3,0.3,0.7,0.5,1,0.5c0.7,0,1.6-3.4,2.8-10.3c1.2-6.9,2.7-10.3,4.6-10.3c2.9,0,8.5,0.8,16.6,2.5
		C1567.8,2831.2,1572.3,2832.9,1572.3,2834.4z M1530.5,2902.9c0-13.4-4-25-12-34.6c-8.4-10.4-19.2-15.6-32.3-15.6
		c-13.1,0-24,5.1-32.8,15.4c-8.4,9.8-12.6,21.4-12.6,34.7c0,13.2,4.2,24.7,12.6,34.4c8.7,10.2,19.7,15.2,32.8,15.2
		c12.8,0,23.5-5.2,32.1-15.6C1526.5,2927.3,1530.5,2916,1530.5,2902.9z"/>
	<path class="st0" d="M1643.8,2755.4l-0.2,2.1c-2.4,40.6-3.6,75.6-3.6,104.7c0,13,0.2,32.5,0.7,58.4c0.4,26,0.7,45.4,0.7,58.3
		c0,2.5-0.9,3.8-2.6,3.8h-31.3c-2,0-3-1.3-3-3.8c0-12.9,0.1-32.3,0.3-58.3c0.2-25.9,0.3-45.4,0.3-58.4c0-11.8-0.6-29.5-1.7-53.2
		c-1.1-23.7-1.7-41.3-1.7-53c0-2.2,1.1-3.3,3.4-3.3c2,0,4.9,0.2,8.9,0.5c3.9,0.3,6.9,0.5,8.9,0.5c2.1,0,5.1-0.2,9.2-0.5
		c4-0.3,7-0.5,9-0.5C1643,2752.8,1643.9,2753.7,1643.8,2755.4z"/>
	<path class="st0" d="M1770.9,2952.6c0,2.4-0.2,5.7-0.7,9.8c-0.5,5.1-0.9,8.5-1,10c-0.1,2-0.3,3.2-0.5,3.6c-0.4,0.8-1.5,1.5-3.1,2.3
		c-9,4.3-23.1,6.4-42.3,6.4c-25.6,0-38.4-11.6-38.4-34.7c0-9.3,0.2-23.2,0.7-41.9c0.4-18.6,0.7-32.6,0.7-41.9c0-4.5-2.2-6.9-6.7-7.2
		c-4,0-8-0.1-12-0.2c-2.3-0.5-3.4-5-3.4-13.4c0-3.2,0.2-6.5,0.7-10c0.3-2.6,2.1-4.2,5.2-4.8c2.7,0,5.4-0.1,8-0.2
		c5-0.2,7.5-2.5,7.5-6.7c0-4.4-0.1-11-0.4-20c-0.3-9-0.4-15.7-0.4-20.2c0-8,1.5-12,4.6-12c1,0,11.3,1.7,30.8,5.1
		c2.5,0.3,3.8,1.5,3.8,3.6c0,4.8-0.4,12-1.1,21.6c-0.7,9.6-1.1,16.8-1.1,21.6c0,3.2,1.5,4.8,4.4,4.8h39.3c1.9,0,2.8,0.7,2.8,2
		c0,1.3-0.2,3.4-0.6,6.3c-0.4,2.9-0.6,5.1-0.6,6.5c0,1.6,0.1,4.2,0.2,7.5c0.1,3.4,0.2,5.9,0.2,7.5c0,2.1-1.5,3.1-4.6,3.1
		c-4.4,0-11-0.3-19.8-0.9c-8.9-0.6-15.5-0.9-19.8-0.9c-0.9,0-1.5,3.1-2,9.3c-0.5,7.8-0.8,18.6-0.8,32.6v24.4c0,9.4,0.9,16,2.6,19.7
		c2.6,5.7,8,8.5,16.2,8.5c3.4,0,8.4-0.7,14.9-2.2c6.6-1.5,11.4-2.2,14.6-2.2C1770.3,2949.7,1770.9,2950.6,1770.9,2952.6z"/>
	<path class="st0" d="M1935.7,2868.7c0,18.5-0.5,29.6-1.6,33.4c-1.4,4.9-14.9,26.4-40.6,64.3c-25.6,38-40.8,59.2-45.6,63.7
		c-4.4,3.9-18.5,5.9-42.3,5.9c-2.8,0-4.7-0.3-5.5-0.9c-0.8-0.6-2.7-4.6-5.6-11.9c-2.9-7.3-4.3-11.7-4.3-13.1c0-2.4,2.9-3.6,8.7-3.6
		c12.2,0,21.2-1.7,27-5.2c2-1.2,4.9-5,8.9-11.3c4-6.3,6-10.6,6-12.8c0-3-7.9-14.5-23.8-34.6c-16.7-21.3-26.1-34.8-28-40.5
		c-1.5-4.5-2.3-15.2-2.3-32.1c0-4.2,0.1-10.4,0.2-18.8c0.1-8.4,0.2-14.7,0.2-18.9c0-2.4,1.3-3.6,3.9-3.6c3.5,0,8.7,0.2,15.5,0.7
		c6.8,0.4,12,0.7,15.5,0.7c1.7,0,2.6,1.1,2.6,3.4c0,3.1-0.2,7.6-0.5,13.8c-0.3,6.1-0.5,10.7-0.5,13.8c0,13.3,0.4,23.3,1.3,29.8
		c0.7,4.2,6.6,14.5,17.9,31c11.3,16.5,18.2,24.7,20.8,24.7c1.9,0,7.8-8.1,17.7-24.3c9.9-16.2,15.2-26.2,15.9-30.1
		c0.9-5.5,1.3-15.4,1.3-29.8c0-3.2-0.3-7.8-1-14c-0.7-6.2-1-10.8-1-13.8c0-2.7,0.9-4.1,2.6-4.1c3.5,0,8.8-0.2,15.8-0.7
		c7-0.5,12.3-0.7,15.8-0.7C1934.1,2828.9,1935.7,2842.1,1935.7,2868.7z"/>
	<path class="st0" d="M2255.1,2979c0,2.5-1.6,3.8-4.9,3.8c-1.9,0-4.7-0.2-8.6-0.5c-3.9-0.3-6.8-0.5-8.8-0.5c-2.1,0-5.2,0.2-9.4,0.5
		c-4.2,0.3-7.3,0.5-9.4,0.5c-2.5,0-3.8-1.3-3.8-3.8c0-9.8,0.3-24.6,0.9-44.3c0.6-19.7,0.9-34.4,0.9-44.3c0-4.3-1.3-6.7-3.8-7.4
		c-3.3-0.9-22.2-1.3-56.7-1.3c-34.4,0-53.3,0.4-56.7,1.3c-2.4,0.7-3.6,3.1-3.6,7.4c0,9.6,0.3,24.1,0.8,43.4
		c0.5,19.3,0.8,33.8,0.8,43.4c0,3.6-1.4,5.4-4.1,5.4c-2.1,0-5.2-0.2-9.3-0.5c-4.2-0.3-7.3-0.5-9.3-0.5c-2,0-4.9,0.2-8.8,0.5
		c-3.9,0.3-6.8,0.5-8.8,0.5c-2.7,0-4.1-1.3-4.1-3.8c0-12,0.6-30.1,1.7-54.2c1.1-24.1,1.7-42.1,1.7-54.2c0-12.7-0.6-31.7-1.7-57.1
		c-1.1-25.4-1.7-44.4-1.7-57.1c0-2.4,1.4-3.6,4.1-3.6c2,0,5,0.2,9,0.5c4,0.3,7.1,0.5,9.2,0.5c2,0,5-0.2,9.2-0.5
		c4.2-0.3,7.2-0.5,9.2-0.5c2.5,0,3.8,1,3.8,3c0,9.4-0.4,23.5-1.2,42.4c-0.8,18.8-1.2,33-1.2,42.4c0,3.1,1.1,4.9,3.4,5.6
		c2.7,1,22,1.5,57.7,1.5c35,0,54.1-0.5,57.4-1.5c2.5-0.7,3.8-3,3.8-7c0-9.2-0.3-23-0.9-41.5c-0.6-18.5-0.9-32.3-0.9-41.5
		c0-2.2,1.3-3.3,3.8-3.3c2.1,0,5.1,0.2,9.1,0.5c4,0.3,7,0.5,9.1,0.5c2,0,4.9-0.2,8.9-0.5c3.9-0.3,6.9-0.5,8.9-0.5
		c2.8,0,4.3,1.2,4.3,3.6c0,12.7-0.5,31.7-1.6,57.1c-1.1,25.4-1.6,44.4-1.6,57.1c0,12,0.6,30.1,1.8,54.2
		C2254.5,2948.9,2255.1,2967,2255.1,2979z"/>
	<path class="st0" d="M2440.2,2902.9c0,22.8-7.5,42.3-22.5,58.5c-15.3,16.7-34.3,25.1-56.9,25.1c-22.7,0-41.7-8.3-57-24.9
		c-15-16.1-22.5-35.5-22.5-58.3c0-22.8,7.5-42.3,22.5-58.3c15.4-16.4,34.4-24.6,57-24.6c22.5,0,41.4,8.2,56.7,24.6
		C2432.7,2860.9,2440.2,2880.2,2440.2,2902.9z M2405.7,2903.3c0-13.3-4.1-24.7-12.3-34.1c-8.5-9.9-19.3-14.9-32.5-14.9
		c-13.1,0-24,4.9-32.6,14.8c-8.2,9.5-12.3,20.9-12.3,34.3c0,13.1,4.2,24.5,12.5,34.1c8.7,10.2,19.6,15.2,32.5,15.2
		c13,0,23.8-5.1,32.5-15.2C2401.6,2927.8,2405.7,2916.4,2405.7,2903.3z"/>
	<path class="st0" d="M2715.8,2976.7c0,4.3-1.3,6.4-3.8,6.4c-1.6,0-4.1-0.2-7.5-0.5c-3.3-0.3-5.9-0.5-7.6-0.5
		c-1.9,0-4.6,0.1-8.4,0.3c-3.7,0.2-6.5,0.3-8.4,0.3c-2.3,0-3.4-2.6-3.4-7.7c0-5,0.2-12.5,0.6-22.5c0.4-10,0.6-17.5,0.6-22.5
		c0-27.6-0.1-43-0.3-46.2c-0.9-11.3-3.2-19-6.9-23.3c-4.3-4.6-11.9-6.9-22.8-6.9c-6.9,0-14.6,3.3-23.3,9.8
		c-9,6.9-13.6,13.7-13.9,20.3c-0.4,8.5-0.7,24.1-0.7,46.7c0,5.4,0.2,13.4,0.7,24.1c0.4,10.7,0.7,18.7,0.7,24.1c0,3-1,4.4-3,4.4
		c-2,0-4.8-0.2-8.6-0.5s-6.6-0.5-8.6-0.5c-1.7,0-4.3,0.1-7.7,0.3c-3.4,0.2-6,0.3-7.7,0.3c-2.2,0-3.3-1.6-3.3-4.8
		c0-5.2,0.2-13.1,0.5-23.7c0.3-10.5,0.5-18.4,0.5-23.7v-39.5c0-12.3-1.5-21.1-4.4-26.4c-4.2-7.4-12.1-11.1-23.8-11.1
		c-6.9,0-15.1,2.9-24.6,8.7c-10.5,6.3-15.7,12.7-15.7,19.2v47.9c0,5.5,0.1,13.6,0.2,24.4c0.1,10.8,0.2,18.9,0.2,24.3
		c0,3.2-1.3,4.8-3.8,4.8h-30.5c-2.2,0-3.3-1.5-3.3-4.4c0-8.9,0.1-22.2,0.2-39.9c0.1-17.8,0.2-31.1,0.2-39.9c0-20-2.1-39.9-6.4-59.8
		c-0.3-1.4-0.5-2.6-0.5-3.4c0-1.4,0.5-2.2,1.5-2.5c4-0.4,9.9-1.3,17.7-2.5c3.6-1.1,9-2.3,16.2-3.6l1.3-0.2c1.3,0,2.5,3.9,3.7,11.6
		c1.1,7.7,2.2,11.6,3,11.6l8.2-7.2c6.4-5.6,12.9-10,19.3-13.3c9.3-4.8,18.6-7.2,27.9-7.2c25.1,0,41.1,10.3,48,30.8
		c6.8-8.7,15.2-16,25.2-21.6c10.7-6.1,21.3-9.2,31.8-9.2c20.2,0,34.2,5.9,42,17.7c5.6,8.7,8.4,22.6,8.4,41.5c0,3.6-0.1,9.2-0.3,16.7
		c-0.2,7.5-0.3,13.1-0.3,16.7c0,6.9,0.2,17.2,0.5,31.1C2715.7,2959.5,2715.8,2969.8,2715.8,2976.7z"/>
	<path class="st0" d="M2890.4,2894.8c0,8.1-3.5,13.5-10.5,16.2c-4.7,1.7-38.5,5-101.4,9.7c1.4,9.6,6.7,17.8,15.9,24.6
		c8.7,6.4,18.1,9.7,28.2,9.7c17.3,0,33.1-5.6,47.5-16.7c1.7-1.4,3.5-2.8,5.2-4.3c0.9,0,1.4,0.1,1.7,0.3c0.3,0.2,2.3,4,6.1,11.4
		c3.8,7.4,5.7,11.3,5.7,11.9c0,0.7-0.9,1.9-2.6,3.8c-16.1,17-36.7,25.6-61.8,25.6c-25.3,0-45.6-7.6-60.6-22.7
		c-15.1-15.1-22.6-35.3-22.6-60.6c0-22.5,7.2-42.1,21.6-58.8c15.2-17.4,33.8-26.1,55.9-26.1c20.5,0,37.7,7.5,51.5,22.6
		C2883.7,2856,2890.4,2873.8,2890.4,2894.8z M2851.4,2884.8c0-9.1-3.6-17.1-10.7-24.1c-7.2-7-15.2-10.5-24.2-10.5
		c-10.1,0-19,4-26.8,12.1c-7.8,8.1-11.7,17.2-11.7,27.2c0,2.3,2,3.4,5.9,3.4c16.2,0,35.5-1.6,58-4.9
		C2848.3,2887.2,2851.4,2886.1,2851.4,2884.8z"/>
</g>
<g>
	<linearGradient id="SVGID_1_" gradientUnits="userSpaceOnUse" x1="2328.3508" y1="1724.7493" x2="3079.072" y2="1724.7493">
		<stop  offset="0" style="stop-color:#F23900"/>
		<stop  offset="0.174" style="stop-color:#F05710"/>
		<stop  offset="0.3826" style="stop-color:#EF731F"/>
		<stop  offset="0.5912" style="stop-color:#EE8829"/>
		<stop  offset="0.7978" style="stop-color:#ED9430"/>
		<stop  offset="1" style="stop-color:#ED9832"/>
	</linearGradient>
	<linearGradient id="SVGID_2_" gradientUnits="userSpaceOnUse" x1="2327.8508" y1="1724.7493" x2="3079.572" y2="1724.7493">
		<stop  offset="0" style="stop-color:#F23900"/>
		<stop  offset="0.174" style="stop-color:#F05710"/>
		<stop  offset="0.3826" style="stop-color:#EF731F"/>
		<stop  offset="0.5912" style="stop-color:#EE8829"/>
		<stop  offset="0.7978" style="stop-color:#ED9430"/>
		<stop  offset="1" style="stop-color:#ED9832"/>
	</linearGradient>
	<path class="st1" d="M3037.1,1779.3h-707.6c-0.6,0-1.2-0.5-1.2-1.2v-108h708.7c23.2,0,42,18.8,42,42v25.1
		C3079.1,1760.5,3060.3,1779.3,3037.1,1779.3z"/>
	<linearGradient id="SVGID_3_" gradientUnits="userSpaceOnUse" x1="2412.1748" y1="2184.968" x2="3162.896" y2="2184.968">
		<stop  offset="0" style="stop-color:#F23900"/>
		<stop  offset="0.174" style="stop-color:#F05710"/>
		<stop  offset="0.3826" style="stop-color:#EF731F"/>
		<stop  offset="0.5912" style="stop-color:#EE8829"/>
		<stop  offset="0.7978" style="stop-color:#ED9430"/>
		<stop  offset="1" style="stop-color:#ED9832"/>
	</linearGradient>
	<linearGradient id="SVGID_4_" gradientUnits="userSpaceOnUse" x1="2411.6748" y1="2184.968" x2="3163.396" y2="2184.968">
		<stop  offset="0" style="stop-color:#F23900"/>
		<stop  offset="0.174" style="stop-color:#F05710"/>
		<stop  offset="0.3826" style="stop-color:#EF731F"/>
		<stop  offset="0.5912" style="stop-color:#EE8829"/>
		<stop  offset="0.7978" style="stop-color:#ED9430"/>
		<stop  offset="1" style="stop-color:#ED9832"/>
	</linearGradient>
	<path class="st2" d="M3120.9,2239.5h-707.6c-0.6,0-1.2-0.5-1.2-1.2v-108h708.7c23.2,0,42,18.8,42,42v25.1
		C3162.9,2220.7,3144.1,2239.5,3120.9,2239.5z"/>
	<linearGradient id="SVGID_5_" gradientUnits="userSpaceOnUse" x1="2471.2026" y1="2402.4309" x2="3221.9238" y2="2402.4309">
		<stop  offset="0" style="stop-color:#F23900"/>
		<stop  offset="0.174" style="stop-color:#F05710"/>
		<stop  offset="0.3826" style="stop-color:#EF731F"/>
		<stop  offset="0.5912" style="stop-color:#EE8829"/>
		<stop  offset="0.7978" style="stop-color:#ED9430"/>
		<stop  offset="1" style="stop-color:#ED9832"/>
	</linearGradient>
	<linearGradient id="SVGID_6_" gradientUnits="userSpaceOnUse" x1="2470.7026" y1="2402.4309" x2="3222.4238" y2="2402.4309">
		<stop  offset="0" style="stop-color:#F23900"/>
		<stop  offset="0.174" style="stop-color:#F05710"/>
		<stop  offset="0.3826" style="stop-color:#EF731F"/>
		<stop  offset="0.5912" style="stop-color:#EE8829"/>
		<stop  offset="0.7978" style="stop-color:#ED9430"/>
		<stop  offset="1" style="stop-color:#ED9832"/>
	</linearGradient>
	<path class="st3" d="M3173.5,2465.4h-694.6c-4.2,0-7.6-3.4-7.6-7.6v-111.9c0-3.6,2.9-6.5,6.5-6.5h695.8c26.8,0,48.5,21.7,48.5,48.5
		v29C3221.9,2443.7,3200.2,2465.4,3173.5,2465.4z"/>
	<linearGradient id="SVGID_7_" gradientUnits="userSpaceOnUse" x1="2471.2026" y1="1951.6775" x2="3221.9238" y2="1951.6775">
		<stop  offset="0" style="stop-color:#F23900"/>
		<stop  offset="0.174" style="stop-color:#F05710"/>
		<stop  offset="0.3826" style="stop-color:#EF731F"/>
		<stop  offset="0.5912" style="stop-color:#EE8829"/>
		<stop  offset="0.7978" style="stop-color:#ED9430"/>
		<stop  offset="1" style="stop-color:#ED9832"/>
	</linearGradient>
	<linearGradient id="SVGID_8_" gradientUnits="userSpaceOnUse" x1="2470.7026" y1="1951.6775" x2="3222.4238" y2="1951.6775">
		<stop  offset="0" style="stop-color:#F23900"/>
		<stop  offset="0.174" style="stop-color:#F05710"/>
		<stop  offset="0.3826" style="stop-color:#EF731F"/>
		<stop  offset="0.5912" style="stop-color:#EE8829"/>
		<stop  offset="0.7978" style="stop-color:#ED9430"/>
		<stop  offset="1" style="stop-color:#ED9832"/>
	</linearGradient>
	<path class="st4" d="M3161.3,2030.5H2491c-10.9,0-19.8-8.9-19.8-19.8v-119.1c0-10.3,8.3-18.6,18.6-18.6h671.4
		c33.5,0,60.6,27.2,60.6,60.6v36.3C3221.9,2003.3,3194.8,2030.5,3161.3,2030.5z"/>
</g>
<g>
	<path class="st5" d="M1819.5,2393.7c61.2-1.3,122.4-2.7,183.6-4c12.6-27.6,30.6-41.9,41.2-37.9c7.8,2.9,12.6,15.9,13.3,25.7
		c1.1,14.3-6.7,17.8-4.9,29.8c2.2,14.2,14.1,14.9,16.4,27.9c2.3,12.9-6.5,29.2-19.9,36c-15,7.7-34.4,2.8-45.9-12.6
		c-61.6-0.5-123.1-1-184.7-1.5"/>
	<path class="st6" d="M1652.4,2234.9c-101.9-24.9-189.4-46.3-241.8,7.8c-49.2,50.7-52.3,152-15.2,216.1
		c73.2,126.5,287.8,82.2,394.6,60.1c66.9-13.8,96.1-31.1,105.4-57.5c17.7-50.4-43.8-115.2-60.6-132.9
		C1775.5,2265.9,1705.7,2247.9,1652.4,2234.9z"/>
</g>
<g>
	
		<linearGradient id="SVGID_9_" gradientUnits="userSpaceOnUse" x1="1873.4432" y1="1421.9612" x2="2011.8074" y2="1421.9612" gradientTransform="matrix(0.9336 0.3584 -0.3584 0.9336 823.0509 -525.2884)">
		<stop  offset="0" style="stop-color:#F23900"/>
		<stop  offset="0.174" style="stop-color:#F05710"/>
		<stop  offset="0.3826" style="stop-color:#EF731F"/>
		<stop  offset="0.5912" style="stop-color:#EE8829"/>
		<stop  offset="0.7978" style="stop-color:#ED9430"/>
		<stop  offset="1" style="stop-color:#ED9832"/>
	</linearGradient>
	<path class="st7" d="M2168.6,1583.2l22.9-59.6c12.8-33.4-3.9-70.8-37.2-83.6l-7.2-2.8c-34-13-72.1,3.9-85.1,37.9l-22.5,58.6
		L2168.6,1583.2z"/>
	
		<linearGradient id="SVGID_10_" gradientUnits="userSpaceOnUse" x1="1170.3824" y1="1868.9259" x2="2709.5347" y2="1868.9259" gradientTransform="matrix(0.9336 0.3584 -0.3584 0.9336 823.0509 -525.2884)">
		<stop  offset="0" style="stop-color:#F23900"/>
		<stop  offset="0.174" style="stop-color:#F05710"/>
		<stop  offset="0.3826" style="stop-color:#EF731F"/>
		<stop  offset="0.5912" style="stop-color:#EE8829"/>
		<stop  offset="0.7978" style="stop-color:#ED9430"/>
		<stop  offset="1" style="stop-color:#ED9832"/>
	</linearGradient>
	
		<linearGradient id="SVGID_11_" gradientUnits="userSpaceOnUse" x1="1169.8824" y1="1868.9259" x2="2710.0347" y2="1868.9259" gradientTransform="matrix(0.9336 0.3584 -0.3584 0.9336 823.0509 -525.2884)">
		<stop  offset="0" style="stop-color:#F23900"/>
		<stop  offset="0.174" style="stop-color:#F05710"/>
		<stop  offset="0.3826" style="stop-color:#EF731F"/>
		<stop  offset="0.5912" style="stop-color:#EE8829"/>
		<stop  offset="0.7978" style="stop-color:#ED9430"/>
		<stop  offset="1" style="stop-color:#ED9832"/>
	</linearGradient>
	<path class="st8" d="M2582.4,2433.3c-6.1,25.8-14.1,53.8-24.8,83.2c-5.7,15.6-11.7,30.4-17.8,44.3l-1436.1-551.3
		c20.5-53.9,120.2-299.1,394-431.9c295.2-143.1,570-47.6,618.2-29.9c25.5,9.5,101.5,39.1,186.6,101.7c21.4,14.1,49.1,33.9,79.5,60
		c27.8,24,66.8,58,105.4,111.4c39.8,55.1,59.8,104.5,70.6,131.5c13.9,34.7,22.8,66,26.3,79.2c2.8,10.4,7.4,28.2,11.8,50.8
		c0,0,8.1,41.2,11.6,83.2C2617.7,2286.5,2587.7,2411,2582.4,2433.3z"/>
</g>
<linearGradient id="SVGID_12_" gradientUnits="userSpaceOnUse" x1="996.0231" y1="2560.8008" x2="2687.8274" y2="2560.8008">
	<stop  offset="0" style="stop-color:#F23900"/>
	<stop  offset="0.174" style="stop-color:#F05710"/>
	<stop  offset="0.3826" style="stop-color:#EF731F"/>
	<stop  offset="0.5912" style="stop-color:#EE8829"/>
	<stop  offset="0.7978" style="stop-color:#ED9430"/>
	<stop  offset="1" style="stop-color:#ED9832"/>
</linearGradient>
<linearGradient id="SVGID_13_" gradientUnits="userSpaceOnUse" x1="995.5231" y1="2560.8008" x2="2688.3274" y2="2560.8008">
	<stop  offset="0" style="stop-color:#F23900"/>
	<stop  offset="0.174" style="stop-color:#F05710"/>
	<stop  offset="0.3826" style="stop-color:#EF731F"/>
	<stop  offset="0.5912" style="stop-color:#EE8829"/>
	<stop  offset="0.7978" style="stop-color:#ED9430"/>
	<stop  offset="1" style="stop-color:#ED9832"/>
</linearGradient>
<path class="st9" d="M2654.8,2603.7H1029c-18.2,0-33-14.8-33-33v-19.8c0-18.2,14.8-33,33-33h1625.8c18.2,0,33,14.8,33,33v19.8
	C2687.8,2588.9,2673.1,2603.7,2654.8,2603.7z"/>
<g>
	<path class="st10" d="M2043.3,1215.4c7.8,2.9,33.3-30,43.9-70.1c13.3-50.4-1.4-96.1-14.4-134.8c-21.7-64.4-39.4-65.7-48.2-113.2
		c-12.1-65.4,12.9-110.3,4.8-113.2c-9.6-3.4-59.1,54.3-53,118c4.6,48.1,36.6,52.7,57.8,127.6c11.7,41.3,13.1,79.1,13.4,91.5
		C2048.8,1178.8,2035.9,1212.7,2043.3,1215.4z"/>
	<path class="st10" d="M1670.7,1407.8c7.8,2.9,33.3-30,43.9-70.1c13.3-50.4-1.4-96.1-14.4-134.8c-21.7-64.4-39.4-65.7-48.2-113.2
		c-12.1-65.4,12.9-110.3,4.8-113.2c-9.6-3.4-59.1,54.3-53,118c4.6,48.1,36.6,52.7,57.8,127.6c11.7,41.3,13.1,79.1,13.4,91.5
		C1676.2,1371.2,1663.3,1405.1,1670.7,1407.8z"/>
	<path class="st10" d="M2432.4,1384.5c7.8,2.6,33.3-26.7,43.9-62.5c13.3-45-1.4-85.7-14.4-120.2c-21.7-57.4-39.4-58.6-48.2-100.9
		c-12.1-58.3,12.9-98.3,4.8-100.9c-9.6-3.1-59.1,48.4-53,105.2c4.6,42.9,36.6,47,57.8,113.8c11.7,36.8,13.1,70.6,13.4,81.6
		C2437.9,1351.8,2425,1382,2432.4,1384.5z"/>
</g>
<g>
	<path class="st0" d="M1259.2,3100.1l-29.1,102.9H1216l-21.2-75.2c-0.9-3.2-1.5-6.7-1.6-10.5h-0.3c-0.3,3.5-0.9,7-1.9,10.3
		l-21.3,75.3h-14l-30.1-102.9h13.3l21.9,78.9c0.9,3.3,1.5,6.7,1.7,10.3h0.4c0.2-2.5,1-6,2.2-10.3l22.7-78.9h11.5l21.8,79.5
		c0.8,2.7,1.3,5.9,1.7,9.6h0.3c0.2-2.5,0.8-5.8,1.9-9.9l21-79.2H1259.2z"/>
	<path class="st0" d="M1333.9,3203h-11.8v-42.3c0-15.3-5.7-23-17.1-23c-5.7,0-10.6,2.2-14.5,6.6c-3.9,4.4-5.9,10.1-5.9,17v41.6
		h-11.8v-108.8h11.8v47.5h0.3c5.6-9.3,13.7-13.9,24.1-13.9c16.5,0,24.8,10,24.8,29.9V3203z"/>
	<path class="st0" d="M1414.5,3129.6l-33.8,85.2c-6,15.2-14.5,22.8-25.4,22.8c-3.1,0-5.6-0.3-7.7-0.9v-10.5c2.5,0.9,4.9,1.3,7,1.3
		c5.9,0,10.4-3.5,13.3-10.6l5.9-13.9l-28.7-73.3h13.1l19.9,56.5c0.2,0.7,0.7,2.6,1.5,5.6h0.4c0.2-1.1,0.7-3,1.4-5.5l20.9-56.7
		H1414.5z"/>
	<path class="st0" d="M1462.9,3200.4v-12.6c6.4,4.7,13.5,7.1,21.2,7.1c10.3,0,15.5-3.4,15.5-10.3c0-2-0.4-3.6-1.3-5
		c-0.9-1.4-2.1-2.6-3.6-3.6c-1.5-1.1-3.3-2-5.3-2.8c-2-0.8-4.2-1.7-6.6-2.6c-3.3-1.3-6.1-2.6-8.6-3.9c-2.5-1.3-4.5-2.8-6.2-4.4
		c-1.6-1.6-2.9-3.5-3.7-5.6c-0.8-2.1-1.3-4.6-1.3-7.4c0-3.4,0.8-6.5,2.4-9.1c1.6-2.7,3.7-4.9,6.3-6.7c2.6-1.8,5.6-3.1,9-4.1
		c3.4-0.9,6.9-1.4,10.4-1.4c6.4,0,12.1,1.1,17.1,3.3v11.9c-5.4-3.5-11.6-5.3-18.7-5.3c-2.2,0-4.2,0.3-6,0.8
		c-1.8,0.5-3.3,1.2-4.6,2.1c-1.3,0.9-2.2,2-2.9,3.3c-0.7,1.3-1,2.7-1,4.2c0,1.9,0.3,3.5,1,4.8c0.7,1.3,1.7,2.4,3,3.4
		c1.3,1,3,1.9,4.9,2.7c1.9,0.8,4.1,1.7,6.5,2.7c3.3,1.2,6.2,2.5,8.8,3.8c2.6,1.3,4.8,2.8,6.6,4.4c1.8,1.6,3.2,3.6,4.2,5.7
		c1,2.2,1.5,4.7,1.5,7.7c0,3.6-0.8,6.8-2.4,9.5c-1.6,2.7-3.7,4.9-6.4,6.7c-2.7,1.8-5.8,3.1-9.3,3.9c-3.5,0.9-7.2,1.3-11,1.3
		C1475,3204.7,1468.5,3203.3,1462.9,3200.4z"/>
	<path class="st0" d="M1563.8,3202.3c-2.8,1.5-6.4,2.3-11,2.3c-12.9,0-19.3-7.2-19.3-21.5v-43.5h-12.6v-10h12.6v-17.9l11.8-3.8v21.7
		h18.5v10h-18.5v41.4c0,4.9,0.8,8.4,2.5,10.5c1.7,2.1,4.4,3.2,8.3,3.2c3,0,5.5-0.8,7.7-2.4V3202.3z"/>
	<path class="st0" d="M1632.1,3203h-11.8v-11.5h-0.3c-5.1,8.8-12.7,13.2-22.6,13.2c-7.3,0-13-1.9-17.2-5.8c-4.1-3.9-6.2-9-6.2-15.4
		c0-13.7,8.1-21.7,24.2-24l22-3.1c0-12.5-5-18.7-15.1-18.7c-8.8,0-16.8,3-24,9v-12.1c7.2-4.6,15.5-6.9,25-6.9
		c17.3,0,25.9,9.1,25.9,27.4V3203z M1620.3,3165.9l-17.7,2.4c-5.5,0.8-9.6,2.1-12.3,4.1c-2.8,1.9-4.2,5.4-4.2,10.3
		c0,3.6,1.3,6.5,3.8,8.8c2.6,2.3,6,3.4,10.2,3.4c5.8,0,10.7-2,14.5-6.1c3.8-4.1,5.7-9.3,5.7-15.5V3165.9z"/>
	<path class="st0" d="M1692.6,3141.5c-2.1-1.6-5-2.4-8.9-2.4c-5,0-9.2,2.4-12.6,7.1c-3.4,4.7-5.1,11.2-5.1,19.4v37.4h-11.8v-73.5
		h11.8v15.1h0.3c1.7-5.2,4.2-9.2,7.7-12.1c3.4-2.9,7.3-4.3,11.5-4.3c3.1,0,5.4,0.3,7,1V3141.5z"/>
	<path class="st0" d="M1769,3129.6l-29.3,73.5h-11.5l-27.8-73.5h12.9l18.7,53.4c1.4,3.9,2.2,7.3,2.6,10.3h0.3c0.5-3.7,1.2-7,2.3-10
		l19.5-53.7H1769z"/>
	<path class="st0" d="M1839.8,3169.2h-51.9c0.2,8.2,2.4,14.5,6.6,18.9c4.2,4.4,10,6.7,17.4,6.7c8.3,0,15.9-2.7,22.8-8.2v11
		c-6.5,4.7-15,7-25.6,7c-10.4,0-18.5-3.3-24.5-10c-5.9-6.7-8.9-16.1-8.9-28.2c0-11.4,3.2-20.7,9.7-27.9c6.5-7.2,14.5-10.8,24.1-10.8
		c9.6,0,17,3.1,22.3,9.3c5.3,6.2,7.9,14.8,7.9,25.9V3169.2z M1827.7,3159.3c0-6.8-1.7-12.1-4.9-15.9c-3.2-3.8-7.7-5.7-13.5-5.7
		c-5.5,0-10.3,2-14.1,6c-3.9,4-6.3,9.2-7.2,15.6H1827.7z"/>
	<path class="st0" d="M1990.3,3129.6l-22,73.5h-12.2l-15.1-52.6c-0.6-2-1-4.3-1.1-6.8h-0.3c-0.1,1.7-0.6,3.9-1.5,6.7l-16.4,52.7
		h-11.8l-22.2-73.5h12.3l15.2,55.2c0.5,1.7,0.8,3.9,1,6.6h0.6c0.1-2.1,0.6-4.4,1.3-6.7l16.9-55.1h10.8l15.2,55.4
		c0.5,1.8,0.8,4,1.1,6.6h0.6c0.1-1.9,0.5-4.1,1.2-6.6l14.9-55.4H1990.3z"/>
	<path class="st0" d="M2065,3203h-11.8v-42.3c0-15.3-5.7-23-17.1-23c-5.7,0-10.6,2.2-14.5,6.6c-3.9,4.4-5.9,10.1-5.9,17v41.6H2004
		v-108.8h11.8v47.5h0.3c5.6-9.3,13.7-13.9,24.1-13.9c16.5,0,24.8,10,24.8,29.9V3203z"/>
	<path class="st0" d="M2146.2,3169.2h-51.9c0.2,8.2,2.4,14.5,6.6,18.9c4.2,4.4,10,6.7,17.4,6.7c8.3,0,15.9-2.7,22.8-8.2v11
		c-6.5,4.7-15,7-25.6,7c-10.4,0-18.5-3.3-24.5-10c-5.9-6.7-8.9-16.1-8.9-28.2c0-11.4,3.2-20.7,9.7-27.9c6.5-7.2,14.5-10.8,24.1-10.8
		s17,3.1,22.3,9.3c5.3,6.2,7.9,14.8,7.9,25.9V3169.2z M2134.1,3159.3c0-6.8-1.7-12.1-4.9-15.9c-3.2-3.8-7.7-5.7-13.5-5.7
		c-5.5,0-10.3,2-14.1,6c-3.9,4-6.3,9.2-7.2,15.6H2134.1z"/>
	<path class="st0" d="M2224.9,3203h-11.8v-41.9c0-15.6-5.7-23.4-17.1-23.4c-5.9,0-10.7,2.2-14.6,6.6c-3.9,4.4-5.8,10-5.8,16.8v41.9
		h-11.8v-73.5h11.8v12.2h0.3c5.5-9.3,13.6-13.9,24.1-13.9c8,0,14.2,2.6,18.4,7.8c4.3,5.2,6.4,12.7,6.4,22.5V3203z"/>
	<path class="st0" d="M2345.8,3129.6l-33.8,85.2c-6,15.2-14.5,22.8-25.4,22.8c-3.1,0-5.6-0.3-7.7-0.9v-10.5c2.5,0.9,4.9,1.3,7,1.3
		c5.9,0,10.4-3.5,13.3-10.6l5.9-13.9l-28.7-73.3h13.1l19.9,56.5c0.2,0.7,0.7,2.6,1.5,5.6h0.4c0.2-1.1,0.7-3,1.4-5.5l20.9-56.7
		H2345.8z"/>
	<path class="st0" d="M2388.4,3204.7c-10.9,0-19.5-3.4-26-10.3c-6.5-6.9-9.7-16-9.7-27.3c0-12.3,3.4-22,10.1-28.9
		c6.7-6.9,15.9-10.4,27.3-10.4c11,0,19.5,3.4,25.6,10.1c6.1,6.7,9.2,16.1,9.2,28c0,11.7-3.3,21.1-9.9,28.2
		C2408.4,3201.2,2399.6,3204.7,2388.4,3204.7z M2389.3,3137.7c-7.6,0-13.5,2.6-17.9,7.7c-4.4,5.1-6.6,12.2-6.6,21.3
		c0,8.7,2.2,15.6,6.7,20.6c4.4,5,10.4,7.5,17.9,7.5c7.6,0,13.5-2.5,17.5-7.4c4.1-4.9,6.1-11.9,6.1-21c0-9.2-2-16.3-6.1-21.2
		C2402.7,3140.2,2396.9,3137.7,2389.3,3137.7z"/>
	<path class="st0" d="M2503.2,3203h-11.8v-11.6h-0.3c-4.9,8.9-12.4,13.3-22.7,13.3c-17.5,0-26.3-10.4-26.3-31.3v-43.9h11.7v42
		c0,15.5,5.9,23.2,17.8,23.2c5.7,0,10.5-2.1,14.2-6.3c3.7-4.2,5.6-9.8,5.6-16.6v-42.3h11.8V3203z"/>
	<path class="st0" d="M2628.2,3203h-11.8v-42.3c0-15.3-5.7-23-17.1-23c-5.7,0-10.6,2.2-14.5,6.6c-3.9,4.4-5.9,10.1-5.9,17v41.6
		h-11.8v-108.8h11.8v47.5h0.3c5.6-9.3,13.7-13.9,24.1-13.9c16.5,0,24.8,10,24.8,29.9V3203z"/>
	<path class="st0" d="M2702.9,3203h-11.8v-11.5h-0.3c-5.1,8.8-12.7,13.2-22.6,13.2c-7.3,0-13-1.9-17.2-5.8c-4.1-3.9-6.2-9-6.2-15.4
		c0-13.7,8.1-21.7,24.2-24l22-3.1c0-12.5-5-18.7-15.1-18.7c-8.8,0-16.8,3-24,9v-12.1c7.2-4.6,15.5-6.9,25-6.9
		c17.3,0,25.9,9.1,25.9,27.4V3203z M2691.1,3165.9l-17.7,2.4c-5.5,0.8-9.6,2.1-12.3,4.1c-2.8,1.9-4.2,5.4-4.2,10.3
		c0,3.6,1.3,6.5,3.8,8.8c2.6,2.3,6,3.4,10.2,3.4c5.8,0,10.7-2,14.5-6.1c3.8-4.1,5.7-9.3,5.7-15.5V3165.9z"/>
	<path class="st0" d="M2782.8,3129.6l-29.3,73.5H2742l-27.8-73.5h12.9l18.7,53.4c1.4,3.9,2.2,7.3,2.6,10.3h0.3c0.5-3.7,1.2-7,2.3-10
		l19.5-53.7H2782.8z"/>
	<path class="st0" d="M2853.6,3169.2h-51.9c0.2,8.2,2.4,14.5,6.6,18.9c4.2,4.4,10,6.7,17.4,6.7c8.3,0,15.9-2.7,22.8-8.2v11
		c-6.5,4.7-15,7-25.6,7c-10.4,0-18.5-3.3-24.5-10c-5.9-6.7-8.9-16.1-8.9-28.2c0-11.4,3.2-20.7,9.7-27.9c6.5-7.2,14.5-10.8,24.1-10.8
		s17,3.1,22.3,9.3c5.3,6.2,7.9,14.8,7.9,25.9V3169.2z M2841.6,3159.3c0-6.8-1.7-12.1-4.9-15.9c-3.2-3.8-7.7-5.7-13.5-5.7
		c-5.5,0-10.3,2-14.1,6c-3.9,4-6.3,9.2-7.2,15.6H2841.6z"/>
	<path class="st0" d="M2971.1,3203h-11.8v-11.6h-0.3c-4.9,8.9-12.4,13.3-22.7,13.3c-17.5,0-26.3-10.4-26.3-31.3v-43.9h11.7v42
		c0,15.5,5.9,23.2,17.8,23.2c5.7,0,10.5-2.1,14.2-6.3c3.7-4.2,5.6-9.8,5.6-16.6v-42.3h11.8V3203z"/>
	<path class="st0" d="M2990.4,3200.4v-12.6c6.4,4.7,13.5,7.1,21.2,7.1c10.3,0,15.5-3.4,15.5-10.3c0-2-0.4-3.6-1.3-5
		c-0.9-1.4-2.1-2.6-3.6-3.6c-1.5-1.1-3.3-2-5.3-2.8c-2-0.8-4.2-1.7-6.6-2.6c-3.3-1.3-6.1-2.6-8.6-3.9c-2.5-1.3-4.5-2.8-6.2-4.4
		c-1.6-1.6-2.9-3.5-3.7-5.6c-0.8-2.1-1.3-4.6-1.3-7.4c0-3.4,0.8-6.5,2.4-9.1c1.6-2.7,3.7-4.9,6.3-6.7c2.6-1.8,5.6-3.1,9-4.1
		c3.4-0.9,6.9-1.4,10.4-1.4c6.4,0,12.1,1.1,17.1,3.3v11.9c-5.4-3.5-11.6-5.3-18.7-5.3c-2.2,0-4.2,0.3-6,0.8s-3.3,1.2-4.6,2.1
		c-1.3,0.9-2.2,2-2.9,3.3c-0.7,1.3-1,2.7-1,4.2c0,1.9,0.3,3.5,1,4.8c0.7,1.3,1.7,2.4,3,3.4c1.3,1,3,1.9,4.9,2.7
		c1.9,0.8,4.1,1.7,6.5,2.7c3.3,1.2,6.2,2.5,8.8,3.8c2.6,1.3,4.8,2.8,6.6,4.4c1.8,1.6,3.2,3.6,4.2,5.7c1,2.2,1.5,4.7,1.5,7.7
		c0,3.6-0.8,6.8-2.4,9.5c-1.6,2.7-3.7,4.9-6.4,6.7c-2.7,1.8-5.8,3.1-9.3,3.9c-3.5,0.9-7.1,1.3-11,1.3
		C3002.5,3204.7,2995.9,3203.3,2990.4,3200.4z"/>
</g>
</svg>
